<svg width="72" height="72" viewBox="0 0 72 72" fill="none" xmlns="http://www.w3.org/2000/svg">
<path fill-rule="evenodd" clip-rule="evenodd" d="M68.8696 36C68.8696 54.1534 54.1534 68.8696 36 68.8696C17.8466 68.8696 3.13043 54.1534 3.13043 36C3.13043 17.8466 17.8466 3.13043 36 3.13043C54.1534 3.13043 68.8696 17.8466 68.8696 36ZM72 36C72 55.8822 55.8822 72 36 72C16.1178 72 0 55.8822 0 36C0 16.1178 16.1178 0 36 0C55.8822 0 72 16.1178 72 36ZM19.8975 33.8527C20.5043 33.2524 21.4814 33.2537 22.0868 33.8553L31.6651 43.3759L49.919 25.346C50.5269 24.7456 51.5055 24.7484 52.11 25.3523C52.7203 25.9621 52.7173 26.9523 52.1031 27.5583L33.3554 46.0603C32.413 46.9902 30.8975 46.9878 29.9583 46.0548L19.8953 36.0607C19.2824 35.452 19.2835 34.4603 19.8975 33.8527Z" fill="#00D97E"/>
</svg>