<?xml version="1.0" encoding="UTF-8" standalone="no"?>
<svg
   xmlns:dc="http://purl.org/dc/elements/1.1/"
   xmlns:cc="http://creativecommons.org/ns#"
   xmlns:rdf="http://www.w3.org/1999/02/22-rdf-syntax-ns#"
   xmlns:svg="http://www.w3.org/2000/svg"
   xmlns="http://www.w3.org/2000/svg"
   xmlns:sodipodi="http://sodipodi.sourceforge.net/DTD/sodipodi-0.dtd"
   xmlns:inkscape="http://www.inkscape.org/namespaces/inkscape"
   width="237"
   height="66"
   viewBox="0 0 237 66"
   fill="none"
   version="1.1"
   id="svg41"
   sodipodi:docname="logo_text.svg"
   inkscape:version="0.92.5 (2060ec1f9f, 2020-04-08)">
  <metadata
     id="metadata45">
    <rdf:RDF>
      <cc:Work
         rdf:about="">
        <dc:format>image/svg+xml</dc:format>
        <dc:type
           rdf:resource="http://purl.org/dc/dcmitype/StillImage" />
      </cc:Work>
    </rdf:RDF>
  </metadata>
  <sodipodi:namedview
     pagecolor="#ffffff"
     bordercolor="#666666"
     borderopacity="1"
     objecttolerance="10"
     gridtolerance="10"
     guidetolerance="10"
     inkscape:pageopacity="0"
     inkscape:pageshadow="2"
     inkscape:window-width="1680"
     inkscape:window-height="1018"
     id="namedview43"
     showgrid="false"
     inkscape:zoom="1.8312236"
     inkscape:cx="118.5"
     inkscape:cy="33"
     inkscape:window-x="0"
     inkscape:window-y="0"
     inkscape:window-maximized="1"
     inkscape:current-layer="g24" />
  <g
     clip-path="url(#clip0_5369_18)"
     id="g24">
    <path
       fill-rule="evenodd"
       clip-rule="evenodd"
       d="M198.804 49.8884C194.026 49.8884 189.946 48.1912 186.593 44.8009C183.203 41.4482 181.506 37.3681 181.506 32.5899C181.506 27.8368 183.203 23.7692 186.593 20.3789C189.946 17.0262 194.026 15.3457 198.804 15.3457C202.308 15.3457 205.522 16.3281 208.44 18.2887L205.267 22.9917C203.319 21.679 201.162 21.0143 198.804 21.0143C195.619 21.0143 192.889 22.1472 190.623 24.4172C188.353 26.6746 187.22 29.4002 187.22 32.5857C187.22 35.7712 188.353 38.501 190.623 40.771C192.893 43.0409 195.619 44.1738 198.804 44.1738C201.262 44.1738 203.507 43.4464 205.522 42.0084L208.85 46.6737C205.827 48.8182 202.487 49.8884 198.804 49.8884Z"
       fill="#00BED2"
       id="path2" />
    <path
       fill-rule="evenodd"
       clip-rule="evenodd"
       d="M180.025 5.18789C180.025 6.63013 179.515 7.86335 178.495 8.88337C177.475 9.90339 176.237 10.4134 174.799 10.4134C173.386 10.4134 172.161 9.90339 171.141 8.88337C170.121 7.86335 169.611 6.62595 169.611 5.18789C169.611 3.74983 170.121 2.52497 171.141 1.53003C172.161 0.51001 173.386 0 174.799 0C176.241 0 177.475 0.51001 178.495 1.53003C179.515 2.52497 180.025 3.74565 180.025 5.18789Z"
       fill="#00BED2"
       id="path4" />
    <path
       d="M163.559 1.08301H157.924V49.2497H163.559V1.08301Z"
       fill="#00BED2"
       id="path6" />
    <path
       fill-rule="evenodd"
       clip-rule="evenodd"
       d="M143.627 49.8884C138.848 49.8884 134.768 48.1912 131.416 44.8009C128.025 41.4482 126.328 37.3681 126.328 32.5899C126.328 27.8368 128.021 23.7692 131.416 20.3789C134.768 17.0262 138.848 15.3457 143.627 15.3457C147.13 15.3457 150.345 16.3281 153.263 18.2887L150.09 22.9917C148.142 21.679 145.984 21.0143 143.627 21.0143C140.441 21.0143 137.711 22.1472 135.446 24.4172C133.176 26.6746 132.043 29.4002 132.043 32.5857C132.043 35.7712 133.176 38.501 135.446 40.771C137.716 43.0409 140.441 44.1738 143.627 44.1738C146.089 44.1738 148.33 43.4464 150.345 42.0084L153.672 46.6737C150.65 48.8182 147.31 49.8884 143.627 49.8884Z"
       fill="#00BED2"
       id="path8" />
    <path
       fill-rule="evenodd"
       clip-rule="evenodd"
       d="M103.745 15.3457C108.523 15.3457 112.603 17.0429 115.993 20.4207C119.396 23.8361 121.106 27.9287 121.106 32.7069C121.106 37.4099 119.425 41.3855 116.06 44.6253C112.707 47.8609 108.602 49.4829 103.749 49.4829V43.7976C107.076 43.7976 109.856 42.7399 112.072 40.6246C114.292 38.5094 115.4 35.8715 115.4 32.7111C115.4 29.5006 114.267 26.7457 111.997 24.4632C109.702 22.1681 106.964 21.0227 103.749 21.0227C100.538 21.0227 97.7833 22.1681 95.4883 24.4632C93.2058 26.7457 92.0604 29.4964 92.0604 32.7111V65.8409H86.375V32.7069C86.375 27.9287 88.0722 23.8361 91.4626 20.4207C94.8612 17.0429 98.9664 15.3457 103.745 15.3457Z"
       fill="white"
       id="path10"
       style="fill:#000000" />
    <path
       fill-rule="evenodd"
       clip-rule="evenodd"
       d="M62.5507 50.0022C57.8979 50.0022 53.9223 48.3092 50.6072 44.9147C47.2922 41.5494 45.6367 37.4819 45.6367 32.7037C45.6367 27.9506 47.2922 23.883 50.6072 20.4927C53.9223 17.1024 57.8979 15.4219 62.5507 15.4219C67.2035 15.4219 71.1916 17.1024 74.5066 20.4927C77.8217 23.883 79.4646 27.9506 79.4646 32.7037V49.3626H73.867V32.7079C73.867 29.5224 72.7592 26.7926 70.5394 24.5268C68.3196 22.2694 65.6567 21.1365 62.5465 21.1365C59.4112 21.1365 56.7357 22.2694 54.5159 24.5268C52.3087 26.7968 51.2008 29.5224 51.2008 32.7079C51.2008 35.8933 52.3087 38.6232 54.5159 40.8931C56.7357 43.1505 59.4112 44.2834 62.5465 44.2834V50.0022H62.5507Z"
       fill="white"
       id="path12"
       style="fill:#000000;fill-opacity:1" />
    <path
       d="M177.629 15.9863H171.994V49.254H177.629V15.9863Z"
       fill="#00BED2"
       id="path14" />
    <path
       fill-rule="evenodd"
       clip-rule="evenodd"
       d="M228.814 32.3359C231.364 34.3007 233.367 36.7713 234.83 39.7686C236.268 42.6991 236.995 45.7717 236.995 48.9572V49.2498L231.322 49.1746V48.9195C231.322 46.1521 230.595 43.5519 229.157 41.1064C227.664 38.5939 225.691 36.7211 223.254 35.4712C221.636 36.1233 219.989 36.5664 218.321 36.8089V49.2122H212.648V18.1768C212.648 17.4536 212.678 16.7471 212.745 16.0615H218.455C218.367 16.7387 218.325 17.4452 218.325 18.1768V31.0232C221.829 30.3334 224.826 28.6655 227.288 26.0276C229.976 23.1348 231.331 19.8072 231.331 16.0615H234.165H236.999C236.999 22.7 234.27 28.1304 228.814 32.3359Z"
       fill="#00BED2"
       id="path16" />
    <path
       fill-rule="evenodd"
       clip-rule="evenodd"
       d="M15.4721 49.2542H37.3941C37.6366 49.2542 38.017 49.2375 38.3598 49.0744C40.0069 48.276 40.8304 47.2685 40.8304 46.0018V42.0848C40.8304 42.0262 40.7677 41.9635 40.6507 41.9635H22.236C21.935 41.9635 21.496 42.0012 20.9108 41.8423C19.017 41.3323 18.0806 40.0364 18.0806 38.289C18.0806 37.7748 18.2269 37.223 18.5154 36.6377C14.5398 40.9101 13.0056 45.4207 15.4721 49.2542Z"
       fill="url(#paint0_linear_5369_18)"
       id="path18" />
    <path
       fill-rule="evenodd"
       clip-rule="evenodd"
       d="M4.9532 7.79688C4.83196 7.79688 4.77344 7.85958 4.77344 7.97663V11.8937L4.83196 12.3744C5.07443 14.3058 6.75913 15.0875 8.44802 15.0875H23.4432C23.7441 15.0875 24.1204 15.0164 24.5886 15.146C26.4781 15.6769 27.3602 16.952 27.3602 18.7621C27.3602 19.2512 27.2013 19.8156 26.8878 20.4635C30.8968 16.1744 32.4478 11.6429 29.9729 7.79688H4.9532Z"
       fill="url(#paint1_linear_5369_18)"
       id="path20" />
    <path
       fill-rule="evenodd"
       clip-rule="evenodd"
       d="M26.8842 20.4635C26.809 20.614 26.7254 20.7729 26.6334 20.9317C26.5749 20.9903 26.2321 21.262 25.605 21.7427C25.4169 21.9225 25.2204 22.1022 25.0239 22.2778H24.9069C21.7883 24.6648 14.46 30.1913 2.89284 38.8866C0.965675 40.0947 0 41.2987 0 42.5653V46.0016C0 46.1814 0.0585257 46.3612 0.0585257 46.4239C0.781737 48.2925 1.86446 49.254 3.43212 49.254H15.4675C13.0011 45.4247 14.5353 40.9141 18.5109 36.6375C18.5945 36.4661 18.6363 36.2446 18.7993 36.1192L22.0391 33.5858C25.7346 30.7724 32.5779 25.6221 42.5399 18.1016C44.467 16.9562 45.4327 15.6895 45.4327 14.427V10.9907C45.4327 10.811 45.4327 10.6897 45.3742 10.5685C44.7095 8.76255 43.5682 7.79688 42.0006 7.79688H29.9694C32.4442 11.6387 30.8891 16.1702 26.8842 20.4635Z"
       fill="#00BED2"
       id="path22" />
  </g>
  <defs
     id="defs39">
    <linearGradient
       id="paint0_linear_5369_18"
       x1="31.1876"
       y1="42.9436"
       x2="14.3832"
       y2="42.9436"
       gradientUnits="userSpaceOnUse">
      <stop
         stop-color="#00BED2"
         id="stop26" />
      <stop
         offset="1"
         stop-color="#005B64"
         id="stop28" />
    </linearGradient>
    <linearGradient
       id="paint1_linear_5369_18"
       x1="8.57585"
       y1="14.1289"
       x2="34.3364"
       y2="14.1282"
       gradientUnits="userSpaceOnUse">
      <stop
         stop-color="#00BED2"
         id="stop31" />
      <stop
         offset="1"
         stop-color="#005B64"
         id="stop33" />
    </linearGradient>
    <clipPath
       id="clip0_5369_18">
      <rect
         width="237"
         height="65.8331"
         fill="white"
         id="rect36" />
    </clipPath>
  </defs>
</svg>
